<svg id="Capa_1" data-name="Capa 1" xmlns="http://www.w3.org/2000/svg" viewBox="0 0 383.38 383.39"><defs><style>.cls-1{fill:#fff;}</style></defs><title>anchor</title><path d="M391.69,301.85v7.48c-2.36,8.18-7,14.41-15.38,17.46,3,6.43,3.51,12.6,1,18.84s-7.36,10.41-13.7,12.89c.34.94.54,1.52.76,2.09,4.81,12.88-1.42,25.8-14.52,30.11-.79.26-1.54.65-2.31,1H245c-4.29-2.19-8.67-4.23-12.86-6.6-6.06-3.44-11.92-7.24-18-10.62a14.55,14.55,0,0,0-6.64-1.91c-19.3-.14-38.61-.06-57.92-.12a4.61,4.61,0,0,0-4.49,2.43c-5.24,8.15-12.91,11.5-22.41,10-3.21-.51-6.23-2.13-9.38-3.26-5.3,6.28-5.92,6.69-15,10.1H90.76c-8.18-2.35-14.45-7-17.35-15.25-12.1,5.3-25.3,2.07-31.94-12.64a6.5,6.5,0,0,0-1.39.3c-15.23,7.16-32-5.33-31.77-22.23.38-30.57.14-61.14.08-91.71A24.28,24.28,0,0,1,12,237c4.56-7.44,9.15-14.87,13.39-22.49a17.57,17.57,0,0,0,2.2-8.06c.18-18.71,0-37.43.15-56.15a5.92,5.92,0,0,0-3-5.72c-7.2-4.85-10.69-11.83-9.57-20.52.48-3.7,2.11-7.26,3.26-11.06-7.1-5.11-10.94-12.22-9.76-21.35s6.71-15,15.11-18.5c-3-6.33-3.48-12.51-.93-18.77A22.34,22.34,0,0,1,35.53,41.89c-.48-5.18-1.76-9.81-1.16-14.19C36,16.11,45.5,8.38,57.39,8.36c30.81,0,61.63,0,92.44,0a24.81,24.81,0,0,1,13.46,3.75c7.55,4.62,15.13,9.19,22.81,13.57a13.62,13.62,0,0,0,6.3,1.85c19.46.14,38.92,0,58.38.14,2.2,0,3.25-.89,4.38-2.62,5-7.56,12.09-11.08,21.07-9.93,3.59.46,7,2.07,10.67,3.2C297,3.93,318.61,4.55,327.12,23.58a22,22,0,0,1,18.41-.87c6.36,2.53,10.45,7.36,12.94,13.55a10.79,10.79,0,0,0,1.38-.26c14.58-5.28,26.45.68,31.21,15.66a3.33,3.33,0,0,0,.63.86V155.1c-2.19,4.29-4.23,8.67-6.6,12.86-3.31,5.84-7.07,11.44-10.22,17.36a19,19,0,0,0-2.29,8.39c-.2,18.68-.05,37.36-.16,56a5.88,5.88,0,0,0,3,5.71c7.18,4.84,10.69,11.79,9.58,20.47-.47,3.7-2.1,7.26-3.3,11.22C387.05,290.3,389.82,295.77,391.69,301.85ZM251,40.35h-4.38c-17.84,0-35.68,0-53.52,0a25.36,25.36,0,0,1-13.84-3.81c-7.2-4.46-14.42-8.92-21.84-13A18.5,18.5,0,0,0,149,21.21c-18.83-.21-37.67-.11-56.51-.11H60c-1,0-2,0-3,0-5.64.24-10.09,4.36-10.25,9.44-.16,5.33,4.11,9.63,10.17,9.74,9.23.17,18.47,0,27.7.09,4.15,0,6.88,2.68,6.86,6.32,0,3.44-2.67,6.06-6.54,6.38-1.11.1-2.24,0-3.36,0-12.6,0-25.2-.05-37.8.08A9.84,9.84,0,0,0,34,61.47a9.39,9.39,0,0,0,6.14,10,17.06,17.06,0,0,0,5.15.65c8.61.06,17.22,0,25.82,0,4.66,0,7.61,2.7,7.53,6.53S75.83,84.82,71.3,85c-1,0-2,0-3,0-11.73,0-23.46,0-35.18.05a18.32,18.32,0,0,0-6.22,1,9.28,9.28,0,0,0-5.6,10,10.08,10.08,0,0,0,9.87,8.16c11,.12,22,.05,32.93.05,2.5,0,5-.05,7.49,0,4.27.1,7.2,2.85,7.08,6.55s-2.92,6.14-7.07,6.16c-11.23.06-22.46,0-33.68,0-6,0-10.07,3.84-10.22,9.18s3.79,9.4,9.59,10c1.24.12,2.49.08,3.74.08h62.87c2.25,0,4.5-.09,6.74.05,5.58.34,8.1,5.59,4.92,10.22-.77,1.13-1.68,2.16-2.55,3.22-4.9,6-9.83,11.95-14.68,18a7.64,7.64,0,0,0-.72,9.4,7,7,0,0,0,8.38,3.36,14,14,0,0,0,5.48-3.62c19.82-19.54,39.63-39.07,59.26-58.79,5.09-5.11,10.78-7.72,18-7.45,6.08.22,12.18,0,18.46,0-.23-2-.47-3.54-.59-5.13a19.25,19.25,0,0,1,4.72-14.53c7.44-8.6,20-9.68,29.3-2.45,3.34,2.61,6.59,5.34,10.36,8.41ZM193.52,289.44c-.22,4.29.22,8.26-.73,11.87C189.08,315.5,172,321,160,311.93c-3.54-2.66-6.89-5.56-10.73-8.67v56.43h4.31c17.46,0,34.93.08,52.39-.05a28.42,28.42,0,0,1,15.92,4.43q10.59,6.69,21.51,12.85a15,15,0,0,0,7,1.93c30.18.13,60.37.09,90.56.09,7.43,0,12.31-3.76,12.42-9.54.12-6-4.6-9.7-12.48-9.71-8.61,0-17.22.05-25.82-.07a6.19,6.19,0,0,1-6.42-6,6.48,6.48,0,0,1,5.85-6.62,23.49,23.49,0,0,1,3.36-.1c12.35,0,24.7,0,37.05,0,6.58,0,11.17-4,11.23-9.5s-4.33-9.48-11.06-9.51c-8.61-.05-17.22,0-25.82,0-4.94,0-8-2.66-7.84-6.6s2.94-6.14,7.8-6.16c12.35,0,24.7,0,37,0a26.92,26.92,0,0,0,4.84-.34,9,9,0,0,0,7.45-7,8.13,8.13,0,0,0-3.26-9.27,14.47,14.47,0,0,0-7.55-2.48c-12.85-.24-25.7-.1-38.55-.12-4.72,0-7.68-2.43-7.79-6.23s2.94-6.5,7.86-6.51c11,0,22,.05,32.93,0,6-.05,10.05-3.87,10.19-9.22s-3.81-9.39-9.62-9.93c-1.24-.12-2.49-.08-3.74-.08H292.8c-1.12,0-2.42.34-3.33-.1-2-1-4.64-1.95-5.45-3.66s.05-4.4.65-6.53c.34-1.21,1.61-2.17,2.48-3.23,4.89-6,9.83-11.94,14.67-18a7.61,7.61,0,0,0,.66-9.39,7.13,7.13,0,0,0-8.42-3.33,13.24,13.24,0,0,0-5.19,3.4c-19.64,19.36-39.32,38.67-58.71,58.27-5.67,5.73-11.9,8.65-20,8.2C204.52,289.19,198.8,289.44,193.52,289.44ZM289.46,207c3.85,0,7.15-.49,10.25.08,15.24,2.81,21.85,20,12.59,32.5-2.76,3.74-5.8,7.27-8.92,11.14h56.31V246c0-17.46.06-34.93,0-52.39a26.8,26.8,0,0,1,4.13-14.88c4.44-7.07,8.78-14.22,12.82-21.52a17.53,17.53,0,0,0,2.24-8c.15-29.94.1-59.88.09-89.81a31.48,31.48,0,0,0-.07-3.37c-.52-5.16-4.79-9.27-9.58-9.29-5,0-9,3.81-9.5,9.23a40.21,40.21,0,0,0-.09,4.11c0,8.36.06,16.72-.08,25.07a6.15,6.15,0,0,1-6.1,6.3,6.43,6.43,0,0,1-6.45-5.61,23.19,23.19,0,0,1-.14-3.73c0-12.47,0-24.95,0-37.42,0-6.24-4.19-10.75-9.6-10.73s-9.34,4.32-9.39,10.8c-.06,8.1,0,16.21,0,24.32,0,6.39-2.08,9.53-6.36,9.61s-6.42-3-6.42-9.44c0-12,0-23.95,0-35.92a19.79,19.79,0,0,0-.88-6.24,9.36,9.36,0,0,0-9.88-5.82,10.07,10.07,0,0,0-8.37,10.05c-.1,12.6,0,25.2-.05,37.8,0,6.37-2.09,9.53-6.33,9.57s-6.42-3.12-6.42-9.46c0-10.61.08-21.21,0-31.81-.07-5.5-3.87-9.45-8.91-9.71s-9.24,3.26-10.08,8.59a31.28,31.28,0,0,0-.21,4.85q0,34.23,0,68.48c0,3-.86,5.39-3.73,6.72s-5.08.49-7.25-1.32c-1-.81-1.94-1.58-2.9-2.37-5.79-4.73-11.54-9.52-17.39-14.19-3.09-2.47-6.85-2.69-9.74-.75-3,2-4.24,5.07-3.21,8.46a13.59,13.59,0,0,0,3.5,5.14c19.61,19.9,39.21,39.81,59,59.53,5.12,5.11,7.61,10.86,7.35,18.05C289.29,194.93,289.46,201,289.46,207Zm-249-57.88v4.9c0,17.6,0,35.19,0,52.79A25.84,25.84,0,0,1,36.51,221c-4.35,7-8.7,14-12.65,21.19a20.1,20.1,0,0,0-2.57,9.07c-.19,29.7-.12,59.4-.11,89.1a33.09,33.09,0,0,0,.1,4.11,10.27,10.27,0,0,0,8.86,8.85A9.49,9.49,0,0,0,39.71,347a19.8,19.8,0,0,0,.68-5.54c.07-8.61,0-17.22.07-25.83,0-4.22,2.56-6.92,6.21-7s6.23,2.7,6.51,6.8c.06,1,0,2,0,3,0,11.86,0,23.71,0,35.57a19,19,0,0,0,.48,5.18,9.82,9.82,0,0,0,10,6.91,9.37,9.37,0,0,0,8.48-9.37c.16-8.11.06-16.22.08-24.33,0-1.25,0-2.5,0-3.74.19-4.42,2.74-7.26,6.45-7.25s6.27,2.81,6.3,7.3c.06,13.1,0,26.2,0,39.31,0,6.5,3.91,10.83,9.39,10.88s9.74-4.64,9.78-11c.06-9.74,0-19.47,0-29.2,0-3.25,0-6.49,0-9.74,0-4.61,2.65-7.61,6.47-7.54s6.2,3,6.26,7.37c0,3.49,0,7,0,10.48,0,7.86-.1,15.73.05,23.58a9.38,9.38,0,0,0,8.7,9.54,9.59,9.59,0,0,0,10.13-8.05,27.44,27.44,0,0,0,.35-5.21q0-33.31,0-66.64a33.36,33.36,0,0,1,.09-3.74,6.2,6.2,0,0,1,9.48-4.75,26.86,26.86,0,0,1,3.26,2.5c6.29,5.12,12.52,10.3,18.85,15.38a7.53,7.53,0,0,0,9.4.45,7.13,7.13,0,0,0,3.12-8.5,13.53,13.53,0,0,0-3.52-5.13q-26.26-26.67-52.68-53.2c-14.25-14.29-13.69-12.8-13.59-33,0-3.16,0-6.32,0-8.92-4.52-.26-8.49.15-12.11-.79a20.32,20.32,0,0,1-11-32c2.84-3.85,6-7.48,9.27-11.6Zm83,50.24c0,4.36-.32,8.76.13,13.08a12.21,12.21,0,0,0,2.82,6.9q27.18,27.84,54.77,55.29a7.19,7.19,0,0,0,4.51,1.89c9,.18,18,.26,26.93,0a10.7,10.7,0,0,0,6.59-2.63q28-27.34,55.55-55a7.23,7.23,0,0,0,1.82-4.54c.17-8.85.3-17.72-.05-26.56a11.85,11.85,0,0,0-2.94-7.21q-27-27.72-54.5-55a7.76,7.76,0,0,0-4.84-2c-8.6-.19-17.21,0-25.81-.14a11,11,0,0,0-8.58,3.6Q153.53,153.28,127,179.36c-2.65,2.59-3.83,5.17-3.57,8.81S123.45,195.65,123.45,199.39Z" transform="translate(-8.31 -8.31)"/><path class="cls-1" d="M251,40.35V96.89c-3.77-3.07-7-5.8-10.36-8.41-9.25-7.23-21.86-6.15-29.3,2.45a19.25,19.25,0,0,0-4.72,14.53c.12,1.59.36,3.17.59,5.13-6.28,0-12.38.18-18.46,0-7.22-.27-12.91,2.34-18,7.45-19.63,19.72-39.44,39.25-59.26,58.79a14,14,0,0,1-5.48,3.62,7,7,0,0,1-8.38-3.36,7.64,7.64,0,0,1,.72-9.4c4.85-6,9.78-12,14.68-18,.87-1.06,1.78-2.09,2.55-3.22,3.18-4.63.66-9.88-4.92-10.22-2.24-.14-4.49-.05-6.74-.05H41c-1.25,0-2.5,0-3.74-.08-5.8-.57-9.74-4.7-9.59-10S32,117,37.93,117c11.22-.07,22.45,0,33.68,0,4.15,0,7-2.57,7.07-6.16s-2.81-6.45-7.08-6.55c-2.5-.07-5,0-7.49,0-11,0-22,.07-32.93-.05A10.08,10.08,0,0,1,21.31,96a9.28,9.28,0,0,1,5.6-10,18.32,18.32,0,0,1,6.22-1C44.85,84.92,56.58,85,68.31,85c1,0,2,0,3,0,4.53-.14,7.31-2.5,7.38-6.23s-2.87-6.49-7.53-6.53c-8.6-.08-17.21,0-25.82,0a17.06,17.06,0,0,1-5.15-.65,9.39,9.39,0,0,1-6.14-10,9.84,9.84,0,0,1,9.71-8.26c12.6-.13,25.2-.06,37.8-.08,1.12,0,2.25.06,3.36,0,3.87-.32,6.52-2.94,6.54-6.38,0-3.64-2.71-6.28-6.86-6.32-9.23-.09-18.47.08-27.7-.09-6.06-.11-10.33-4.41-10.17-9.74.16-5.08,4.61-9.2,10.25-9.44,1,0,2,0,3,0H92.52c18.84,0,37.68-.1,56.51.11a18.5,18.5,0,0,1,8.38,2.33c7.42,4.1,14.64,8.56,21.84,13a25.36,25.36,0,0,0,13.84,3.81c17.84,0,35.68,0,53.52,0Z" transform="translate(-8.31 -8.31)"/><path class="cls-1" d="M193.52,289.44c5.28,0,11-.25,16.68.06,8.06.45,14.29-2.47,20-8.2,19.39-19.6,39.07-38.91,58.71-58.27a13.24,13.24,0,0,1,5.19-3.4,7.13,7.13,0,0,1,8.42,3.33,7.61,7.61,0,0,1-.66,9.39c-4.84,6-9.78,12-14.67,18-.87,1.06-2.14,2-2.48,3.23-.6,2.13-1.46,4.81-.65,6.53s3.45,2.69,5.45,3.66c.91.44,2.21.1,3.33.1H359c1.25,0,2.5,0,3.74.08,5.81.54,9.76,4.65,9.62,9.93s-4.24,9.17-10.19,9.22c-11,.08-21.95,0-32.93,0-4.92,0-8,2.57-7.86,6.51s3.07,6.22,7.79,6.23c12.85,0,25.7-.12,38.55.12a14.47,14.47,0,0,1,7.55,2.48,8.13,8.13,0,0,1,3.26,9.27,9,9,0,0,1-7.45,7,26.92,26.92,0,0,1-4.84.34c-12.35,0-24.7,0-37,0-4.86,0-7.69,2.32-7.8,6.16s2.9,6.56,7.84,6.6c8.6,0,17.21,0,25.82,0,6.73,0,11.12,3.86,11.06,9.51s-4.65,9.47-11.23,9.5c-12.35.05-24.7,0-37.05,0a23.49,23.49,0,0,0-3.36.1,6.48,6.48,0,0,0-5.85,6.62,6.19,6.19,0,0,0,6.42,6c8.6.12,17.21.05,25.82.07,7.88,0,12.6,3.69,12.48,9.71-.11,5.78-5,9.53-12.42,9.54-30.19,0-60.38,0-90.56-.09a15,15,0,0,1-7-1.93q-10.92-6.14-21.51-12.85A28.42,28.42,0,0,0,206,359.64c-17.46.13-34.93.05-52.39.05h-4.31V303.26c3.84,3.11,7.19,6,10.73,8.67,12,9,29.08,3.57,32.79-10.62C193.74,297.7,193.3,293.73,193.52,289.44Z" transform="translate(-8.31 -8.31)"/><path class="cls-1" d="M289.46,207c0-6-.17-12.1.05-18.19.26-7.19-2.23-12.94-7.35-18.05-19.79-19.72-39.39-39.63-59-59.53a13.59,13.59,0,0,1-3.5-5.14c-1-3.39.17-6.41,3.21-8.46,2.89-1.94,6.65-1.72,9.74.75,5.85,4.67,11.6,9.46,17.39,14.19,1,.79,1.94,1.56,2.9,2.37,2.17,1.81,4.52,2.59,7.25,1.32s3.73-3.73,3.73-6.72q0-34.25,0-68.48a31.28,31.28,0,0,1,.21-4.85c.84-5.33,5-8.85,10.08-8.59s8.84,4.21,8.91,9.71c.12,10.6,0,21.2,0,31.81,0,6.34,2.15,9.51,6.42,9.46s6.33-3.2,6.33-9.57c0-12.6-.05-25.2.05-37.8a10.07,10.07,0,0,1,8.37-10A9.36,9.36,0,0,1,314.17,27a19.79,19.79,0,0,1,.88,6.24c.08,12,0,23.95,0,35.92,0,6.4,2.13,9.51,6.42,9.44s6.36-3.22,6.36-9.61c0-8.11,0-16.22,0-24.32.05-6.48,3.84-10.77,9.39-10.8s9.56,4.49,9.6,10.73c.08,12.47,0,24.95,0,37.42a23.19,23.19,0,0,0,.14,3.73,6.43,6.43,0,0,0,6.45,5.61,6.15,6.15,0,0,0,6.1-6.3c.14-8.35.06-16.71.08-25.07a40.21,40.21,0,0,1,.09-4.11c.54-5.42,4.52-9.25,9.5-9.23,4.79,0,9.06,4.13,9.58,9.29a31.48,31.48,0,0,1,.07,3.37c0,29.93.06,59.87-.09,89.81a17.53,17.53,0,0,1-2.24,8c-4,7.3-8.38,14.45-12.82,21.52a26.8,26.8,0,0,0-4.13,14.88c.1,17.46,0,34.93,0,52.39v4.78H303.38c3.12-3.87,6.16-7.4,8.92-11.14,9.26-12.52,2.65-29.69-12.59-32.5C296.61,206.54,293.31,207,289.46,207Z" transform="translate(-8.31 -8.31)"/><path class="cls-1" d="M40.42,149.15h56.4c-3.31,4.12-6.43,7.75-9.27,11.6a20.32,20.32,0,0,0,11,32c3.62.94,7.59.53,12.11.79,0,2.6,0,5.76,0,8.92-.1,20.22-.66,18.73,13.59,33q26.43,26.5,52.68,53.2a13.53,13.53,0,0,1,3.52,5.13,7.13,7.13,0,0,1-3.12,8.5,7.53,7.53,0,0,1-9.4-.45c-6.33-5.08-12.56-10.26-18.85-15.38a26.86,26.86,0,0,0-3.26-2.5,6.2,6.2,0,0,0-9.48,4.75,33.36,33.36,0,0,0-.09,3.74q0,33.33,0,66.64a27.44,27.44,0,0,1-.35,5.21,9.59,9.59,0,0,1-10.13,8.05,9.38,9.38,0,0,1-8.7-9.54c-.15-7.85-.05-15.72-.05-23.58,0-3.49,0-7,0-10.48-.06-4.41-2.55-7.31-6.26-7.37s-6.42,2.93-6.47,7.54c0,3.25,0,6.49,0,9.74,0,9.73,0,19.46,0,29.2,0,6.37-4.27,11.06-9.78,11S85.1,374.52,85.05,368c-.08-13.11,0-26.21,0-39.31,0-4.49-2.56-7.29-6.3-7.3s-6.26,2.83-6.45,7.25c0,1.24,0,2.49,0,3.74,0,8.11.08,16.22-.08,24.33a9.37,9.37,0,0,1-8.48,9.37,9.82,9.82,0,0,1-10-6.91,19,19,0,0,1-.48-5.18c0-11.86,0-23.71,0-35.57,0-1,0-2,0-3-.28-4.1-2.93-6.85-6.51-6.8s-6.17,2.74-6.21,7c-.09,8.61,0,17.22-.07,25.83a19.8,19.8,0,0,1-.68,5.54,9.49,9.49,0,0,1-9.57,6.36,10.27,10.27,0,0,1-8.86-8.85,33.09,33.09,0,0,1-.1-4.11c0-29.7-.08-59.4.11-89.1a20.1,20.1,0,0,1,2.57-9.07C27.81,235,32.16,228,36.51,221a25.84,25.84,0,0,0,3.94-14.18c-.07-17.6,0-35.19,0-52.79Z" transform="translate(-8.31 -8.31)"/></svg>