<?xml version="1.0" encoding="utf-8"?>
<!-- Generator: Adobe Illustrator 24.0.2, SVG Export Plug-In . SVG Version: 6.00 Build 0)  -->
<svg version="1.1" id="Capa_1" xmlns="http://www.w3.org/2000/svg" xmlns:xlink="http://www.w3.org/1999/xlink" x="0px" y="0px"
	 viewBox="0 0 24 24" style="enable-background:new 0 0 24 24;" xml:space="preserve">
<style type="text/css">
	.st0{fill:#1CBE59;}
</style>
<g>
	<g>
		<path class="st0" d="M20.5,19.5c-1,0-1.7-0.7-2.3-1.3C17.5,17.6,16.9,17,16,17c-0.8,0-1.3,0.6-1.9,1.2c-0.6,0.7-1.3,1.4-2.3,1.4
			c-1,0-1.5-0.7-2-1.3C9.3,17.6,8.9,17,8,17c-0.9,0-1.5,0.6-2.1,1.2c-0.6,0.7-1.3,1.4-2.4,1.4c-2.2,0-3.3-2.6-3.4-2.7l0.4-0.2
			c0,0,1.1,2.5,3,2.5c0.9,0,1.5-0.6,2.1-1.2c0.6-0.7,1.3-1.4,2.4-1.4c1.1,0,1.7,0.8,2.2,1.4c0.4,0.6,0.8,1.2,1.7,1.2
			c0.9,0,1.4-0.6,2-1.3c0.6-0.7,1.2-1.3,2.2-1.3c1,0,1.7,0.7,2.4,1.4c0.6,0.6,1.2,1.2,2.1,1.2c1.7,0,3.1-2.4,3.1-2.5l0.4,0.3
			C23.9,17,22.4,19.5,20.5,19.5z"/>
		<path class="st0" d="M17.5,9.8V5.5h1v-1H10v1h1v4.3c0,0-2,0.2-3.1-0.4C5.6,8.2,5.5,7.3,4.8,6.5H0.4c0,0,1.9,8.9,4.9,8.9
			s14.5,0,14.5,0c3.5-1.4,3.7-5.6,3.7-5.6H17.5z M13.6,9H12V6.3h1.7V9z M16.9,9h-1.7V6.3h1.7V9z"/>
	</g>
</g>
</svg>
