<?xml version="1.0" encoding="utf-8"?>
<!-- Generator: Adobe Illustrator 24.0.2, SVG Export Plug-In . SVG Version: 6.00 Build 0)  -->
<svg version="1.1" id="Layer_1" xmlns="http://www.w3.org/2000/svg" xmlns:xlink="http://www.w3.org/1999/xlink" x="0px" y="0px"
	 viewBox="0 0 231.6 231.6" style="enable-background:new 0 0 231.6 231.6;" xml:space="preserve">
<style type="text/css">
	.st0{fill:#F75023;}
</style>
<g>
	<g>
		<path class="st0" d="M228.9,118.1c-3.1-3.6-35.3-49-49-49c-13.7,0-34.8,0-34.8,0v-30c0-6.7-5.4-12.2-12.1-12.2H12.9
			c-6.7,0-12.2,5.4-12.2,12.2v124.9h26.1c0-15.3,12.4-27.7,27.7-27.7c15.3,0,27.7,12.4,27.7,27.7h62.2c0-15.3,12.4-27.7,27.7-27.7
			c15.3,0,27.7,12.4,27.7,27.7h29.2C228.9,163.9,232,121.8,228.9,118.1z M146.2,116.1l0.1-40.1c0,0,19.3,0,30.4,0
			c11.2,0,37.5,37.1,40.1,40.1H146.2z"/>
		<path class="st0" d="M77.7,163.9c0,12.8-10.4,23.2-23.2,23.2s-23.2-10.4-23.2-23.2c0-12.8,10.4-23.2,23.2-23.2
			S77.7,151.1,77.7,163.9z"/>
		<path class="st0" d="M195.2,163.9c0,12.8-10.4,23.2-23.2,23.2c-12.8,0-23.2-10.4-23.2-23.2c0-12.8,10.4-23.2,23.2-23.2
			C184.8,140.7,195.2,151.1,195.2,163.9z"/>
	</g>
	<path class="st0" d="M216.5,213H14.6c-4.2,0-7.6-3.4-7.6-7.6l0,0c0-4.2,3.4-7.6,7.6-7.6h201.9c4.2,0,7.6,3.4,7.6,7.6l0,0
		C224.1,209.6,220.7,213,216.5,213z"/>
</g>
</svg>
