<?xml version="1.0" encoding="utf-8"?>
<!-- Generator: Adobe Illustrator 24.0.2, SVG Export Plug-In . SVG Version: 6.00 Build 0)  -->
<svg version="1.1" id="Layer_1" xmlns="http://www.w3.org/2000/svg" xmlns:xlink="http://www.w3.org/1999/xlink" x="0px" y="0px"
	 viewBox="0 0 243.9 243.9" style="enable-background:new 0 0 243.9 243.9;" xml:space="preserve">
<style type="text/css">
	.st0{fill:#271E49;}
</style>
<g>
	<g>
		<g>
			<path class="st0" d="M2.7,94.4L2.7,94.4c7-4.1,16.7-2.1,25.1,5.1l19.9,17.1L104,84L40.3,46.8c-5.8-3.4-7.6-12.4-3.1-15l7.2-4.2
				c11.2-6.4,25.5-6.4,39.9,0.2l65.4,29.8l43.2-25c9.5-5.5,22.1-4.5,34.2,2.8l10.2,6.1c5.8,3.5,7.6,12.5,3,15.1L68.3,156
				c-7.7,4.5-18.7,1.3-27.1-7.9L3.3,106.7C-0.4,102.6-0.7,96.4,2.7,94.4z"/>
		</g>
		<path class="st0" d="M223.3,221H8.4c-4.5,0-8.1-3.6-8.1-8.1l0,0c0-4.5,3.6-8.1,8.1-8.1h214.9c4.5,0,8.1,3.6,8.1,8.1l0,0
			C231.4,217.4,227.8,221,223.3,221z"/>
	</g>
</g>
</svg>
